<svg id="fox" enable-background="new 0 0 300 300" height="512" viewBox="0 0 300 300" width="512" xmlns="http://www.w3.org/2000/svg"><g><circle cx="135.999" cy="118" fill="#e7d1c4" r="74"/><circle cx="47.999" cy="62" fill="#4c241d" r="6"/><g><path d="m93.999 160v72h-2c-5.523 0-10 4.477-10 10s4.477 10 10 10h108.972c7.195 0 13.028-4.57 13.028-10.208v-34.882c0-25.908-26.807-46.911-59.875-46.911h-16.125" fill="#fc8c29"/><path d="m200.972 256h-108.973c-7.719 0-14-6.281-14-14 0-7.039 5.225-12.883 12-13.859v-68.141c0-2.211 1.791-4 4-4s4 1.789 4 4v72c0 2.211-1.791 4-4 4h-2c-3.309 0-6 2.691-6 6s2.691 6 6 6h108.973c4.893 0 9.027-2.844 9.027-6.207v-34.883c0-23.66-25.066-42.91-55.875-42.91h-16.125c-2.209 0-4-1.789-4-4s1.791-4 4-4h16.125c35.221 0 63.875 22.84 63.875 50.91v34.883c0 7.832-7.638 14.207-17.027 14.207z" fill="#4c241d"/></g><path d="m161.999 236c-2.209 0-4-1.789-4-4 0-13.234 10.766-24 24-24 2.209 0 4 1.789 4 4s-1.791 4-4 4c-8.822 0-16 7.176-16 16 0 2.211-1.791 4-4 4z" fill="#4c241d"/><g><path d="m161.999 252h-28c-4.418 0-8-3.582-8-8v-4c0-4.418 3.582-8 8-8h28" fill="#fc8c29"/><path d="m161.999 256h-28c-6.617 0-12-5.383-12-12v-4c0-6.617 5.383-12 12-12h28c2.209 0 4 1.789 4 4s-1.791 4-4 4h-28c-2.205 0-4 1.793-4 4v4c0 2.207 1.795 4 4 4h28c2.209 0 4 1.789 4 4s-1.791 4-4 4z" fill="#4c241d"/></g><path d="m181.999 99.512c-2.209 0-4-1.789-4-4v-5.66c0-2.211 1.791-4 4-4s4 1.789 4 4v5.66c0 2.211-1.791 4-4 4z" fill="#4c241d"/><path d="m181.999 122.148c-2.209 0-4-1.789-4-4v-5.66c0-2.211 1.791-4 4-4s4 1.789 4 4v5.66c0 2.211-1.791 4-4 4z" fill="#4c241d"/><path d="m173.511 108h-5.66c-2.209 0-4-1.789-4-4s1.791-4 4-4h5.66c2.209 0 4 1.789 4 4s-1.791 4-4 4z" fill="#4c241d"/><path d="m196.148 108h-5.66c-2.209 0-4-1.789-4-4s1.791-4 4-4h5.66c2.209 0 4 1.789 4 4s-1.791 4-4 4z" fill="#4c241d"/><g><path d="m117.999 60-20 28-4 16h28z" fill="#fc8c29"/><path d="m121.999 108h-28c-1.232 0-2.395-.566-3.152-1.539-.758-.969-1.027-2.234-.729-3.43l4-16c.121-.488.334-.949.625-1.355l20-28c.973-1.363 2.684-1.969 4.303-1.535 1.613.438 2.785 1.832 2.938 3.496l4 44c.102 1.121-.273 2.23-1.031 3.062-.758.828-1.831 1.301-2.954 1.301zm-22.877-8h18.496l-2.627-28.906-13.295 18.613z" fill="#4c241d"/></g><path d="m209.999 68c-6.617 0-12-5.383-12-12s5.383-12 12-12 12 5.383 12 12-5.383 12-12 12zm0-16c-2.205 0-4 1.793-4 4s1.795 4 4 4 4-1.793 4-4-1.795-4-4-4z" fill="#4c241d"/><g><path d="m137.999 160v-56l-4-44-20 28-4 16h-16l-16 16-37.163 19.846c-4.452 2.704-7.085 7.639-6.819 12.88.21 4.129 3.847 7.273 7.981 7.273h36c2.451 4.903 7.463 8 12.944 8h23.056c4.418 0 8-3.582 8-8" fill="#fc8c29"/><path d="m113.999 172h-23.054c-6.178 0-11.807-3.012-15.223-8h-33.723c-6.4 0-11.66-4.863-11.975-11.07-.342-6.699 3.006-13.023 8.736-16.5l36.83-19.68 15.58-15.578c.75-.75 1.768-1.172 2.828-1.172h12.877l3.242-12.969c.121-.488.334-.949.625-1.355l20-28c.973-1.363 2.684-1.969 4.303-1.535 1.613.438 2.785 1.832 2.938 3.496l4 44 .016 56.363c0 2.211-1.791 4-4 4s-4-1.789-4-4v-56l-3.004-32.91-13.299 18.617-3.816 15.262c-.445 1.781-2.045 3.031-3.881 3.031h-14.344l-14.828 14.828c-.277.277-.596.516-.943.699l-37.162 19.848c-3.023 1.844-4.9 5.391-4.709 9.148.098 1.918 1.885 3.477 3.986 3.477h36c1.516 0 2.9.855 3.578 2.211 1.785 3.57 5.375 5.789 9.367 5.789h23.055c2.205 0 4-1.793 4-4 0-2.211 1.791-4 4-4s4 1.789 4 4c0 6.617-5.383 12-12 12z" fill="#4c241d"/></g><g fill="#4c241d"><circle cx="91.999" cy="130" r="6"/><path d="m121.999 164c-2.209 0-4-1.789-4-4v-12c0-2.211 1.791-4 4-4s4 1.789 4 4v12c0 2.211-1.791 4-4 4z"/><path d="m121.999 108h-16c-2.209 0-4-1.789-4-4s1.791-4 4-4h16c2.209 0 4 1.789 4 4s-1.791 4-4 4z"/><path d="m109.999 256c-2.209 0-4-1.789-4-4v-56c0-2.211 1.791-4 4-4s4 1.789 4 4v56c0 2.211-1.791 4-4 4z"/><path d="m45.999 148h-8c-2.209 0-4-1.789-4-4s1.791-4 4-4h8c2.209 0 4 1.789 4 4s-1.791 4-4 4z"/></g><g><path d="m214.201 132c-.109 1.322-.202 2.65-.202 4v80h4c26.51 0 48-21.49 48-48v-48z" fill="#fc8c29"/><path d="m217.999 220h-4c-2.209 0-4-1.789-4-4v-80c0-1.465.096-2.902.215-4.332.143-1.73 1.391-3.172 3.084-3.566l51.799-12c1.193-.262 2.438.012 3.391.766.955.762 1.512 1.914 1.512 3.133v48c-.001 28.671-23.327 51.999-52.001 51.999zm.012-84.777c-.008.258-.012.52-.012.777v76c24.262 0 44-19.738 44-44v-42.969z" fill="#4c241d"/></g><g><path d="m214.201 132 15.543-2.401 8.255 10.401 9.686-13.171 18.314-2.829v-36h-4c-25.159 0-45.761 19.366-47.798 44z" fill="#fff"/><path d="m237.999 144c-1.219 0-2.373-.555-3.133-1.512l-6.811-8.582-13.244 2.047c-1.207.184-2.443-.191-3.338-1.027-.896-.836-1.361-2.035-1.26-3.254 2.212-26.734 24.958-47.672 51.786-47.672h4c2.209 0 4 1.789 4 4v36c0 1.973-1.439 3.652-3.389 3.953l-16.682 2.574-8.707 11.844c-.738 1.004-1.902 1.605-3.148 1.629-.025 0-.05 0-.074 0zm-8.256-18.402c1.209 0 2.367.551 3.133 1.512l5.002 6.305 6.584-8.957c.627-.852 1.566-1.422 2.611-1.582l14.926-2.305v-28.571c-20.959 0-38.973 15.105-43.082 35.223l10.215-1.578c.205-.032.408-.047.611-.047z" fill="#4c241d"/></g></g></svg>